<?xml version="1.0" encoding="utf-8" standalone="no"?>
<!DOCTYPE svg PUBLIC "-//W3C//DTD SVG 1.1//EN"
  "http://www.w3.org/Graphics/SVG/1.1/DTD/svg11.dtd">
<svg xmlns:xlink="http://www.w3.org/1999/xlink" width="998.64pt" height="358.884pt" viewBox="0 0 998.64 358.884" xmlns="http://www.w3.org/2000/svg" version="1.1">
 <metadata>
  <rdf:RDF xmlns:dc="http://purl.org/dc/elements/1.1/" xmlns:cc="http://creativecommons.org/ns#" xmlns:rdf="http://www.w3.org/1999/02/22-rdf-syntax-ns#">
   <cc:Work>
    <dc:type rdf:resource="http://purl.org/dc/dcmitype/StillImage"/>
    <dc:date>2026-07-30T00:19:23.406525</dc:date>
    <dc:format>image/svg+xml</dc:format>
    <dc:creator>
     <cc:Agent>
      <dc:title>Matplotlib v3.10.3, https://matplotlib.org/</dc:title>
     </cc:Agent>
    </dc:creator>
   </cc:Work>
  </rdf:RDF>
 </metadata>
 <defs>
  <style type="text/css">*{stroke-linejoin: round; stroke-linecap: butt}</style>
 </defs>
 <g id="figure_1">
  <g id="patch_1">
   <path d="M 0 358.884 
L 998.64 358.884 
L 998.64 0 
L 0 0 
z
" style="fill: #ffffff"/>
  </g>
  <g id="axes_1">
   <g id="line2d_1">
    <path d="M 434.323331 168.856402 
L 490.498669 101.445998 
" clip-path="url(#p2ba88b1cfd)" style="fill: none; stroke: #000000; stroke-width: 2.5; stroke-linecap: square"/>
   </g>
   <g id="line2d_2">
    <path d="M 434.323331 190.027598 
L 490.498669 257.438002 
" clip-path="url(#p2ba88b1cfd)" style="fill: none; stroke: #000000; stroke-width: 2.5; stroke-linecap: square"/>
   </g>
   <g id="line2d_3">
    <path d="M 508.141331 101.445998 
L 564.316669 168.856402 
" clip-path="url(#p2ba88b1cfd)" style="fill: none; stroke: #000000; stroke-width: 2.5; stroke-linecap: square"/>
   </g>
   <g id="line2d_4">
    <path d="M 508.141331 257.438002 
L 564.316669 190.027598 
" clip-path="url(#p2ba88b1cfd)" style="fill: none; stroke: #000000; stroke-width: 2.5; stroke-linecap: square"/>
   </g>
   <g id="patch_2">
    <path d="M 100.239635 179.442 
Q 122.84551 179.442 143.774334 179.442 
" style="fill: none; stroke: #000000; stroke-width: 1.5; stroke-linecap: round"/>
    <path d="M 139.374334 177.242 
L 143.774334 179.442 
L 139.374334 181.642 
" style="fill: none; stroke: #000000; stroke-width: 1.5; stroke-linecap: round"/>
   </g>
   <g id="patch_3">
    <path d="M 183.900035 179.442 
Q 206.50591 179.442 227.434734 179.442 
" style="fill: none; stroke: #000000; stroke-width: 1.5; stroke-linecap: round"/>
    <path d="M 223.034734 177.242 
L 227.434734 179.442 
L 223.034734 181.642 
" style="fill: none; stroke: #000000; stroke-width: 1.5; stroke-linecap: round"/>
   </g>
   <g id="text_1">
    <g id="patch_4">
     <path d="M 77.97925 189.5845 
L 84.05675 189.5845 
Q 86.45675 189.5845 86.45675 187.1845 
L 86.45675 171.6995 
Q 86.45675 169.2995 84.05675 169.2995 
L 77.97925 169.2995 
Q 75.57925 169.2995 75.57925 171.6995 
L 75.57925 187.1845 
Q 75.57925 189.5845 77.97925 189.5845 
z
" style="fill: #ffffff"/>
    </g>
    <!-- i -->
    <g transform="translate(77.97925 183.857) scale(0.16 -0.16)">
     <defs>
      <path id="DejaVuSerif-Bold-69" d="M 588 4263 
Q 588 4516 763 4689 
Q 938 4863 1191 4863 
Q 1438 4863 1611 4689 
Q 1784 4516 1784 4263 
Q 1784 4016 1611 3842 
Q 1438 3669 1191 3669 
Q 938 3669 763 3841 
Q 588 4013 588 4263 
z
M 1797 378 
L 2272 378 
L 2272 0 
L 219 0 
L 219 378 
L 691 378 
L 691 2944 
L 219 2944 
L 219 3322 
L 1797 3322 
L 1797 378 
z
" transform="scale(0.015625)"/>
     </defs>
     <use xlink:href="#DejaVuSerif-Bold-69"/>
    </g>
   </g>
   <g id="text_2">
    <g id="patch_5">
     <path d="M 157.59965 189.69825 
L 171.75715 189.69825 
Q 174.15715 189.69825 174.15715 187.29825 
L 174.15715 171.58575 
Q 174.15715 169.18575 171.75715 169.18575 
L 157.59965 169.18575 
Q 155.19965 169.18575 155.19965 171.58575 
L 155.19965 187.29825 
Q 155.19965 189.69825 157.59965 189.69825 
z
" style="fill: #ffffff"/>
    </g>
    <!-- j* -->
    <g transform="translate(157.59965 183.74325) scale(0.16 -0.16)">
     <defs>
      <path id="DejaVuSerif-Bold-6a" d="M 556 4263 
Q 556 4516 729 4689 
Q 903 4863 1159 4863 
Q 1403 4863 1578 4688 
Q 1753 4513 1753 4263 
Q 1753 4016 1579 3842 
Q 1406 3669 1159 3669 
Q 906 3669 731 3841 
Q 556 4013 556 4263 
z
M 684 2944 
L 213 2944 
L 213 3322 
L 1791 3322 
L 1791 -391 
Q 1791 -900 1430 -1161 
Q 1069 -1422 366 -1422 
Q 178 -1422 -34 -1390 
Q -247 -1359 -475 -1300 
L -475 -594 
L -122 -597 
Q -116 -847 -23 -958 
Q 69 -1069 275 -1069 
Q 503 -1069 593 -922 
Q 684 -775 684 -391 
L 684 2944 
z
" transform="scale(0.015625)"/>
      <path id="DejaVuSerif-Bold-2a" d="M 3206 3788 
L 2081 3263 
L 3206 2731 
L 2900 2247 
L 1875 2994 
L 1959 1778 
L 1388 1778 
L 1472 2994 
L 447 2247 
L 141 2731 
L 1269 3263 
L 141 3788 
L 447 4281 
L 1472 3525 
L 1388 4750 
L 1959 4750 
L 1875 3525 
L 2900 4281 
L 3206 3788 
z
" transform="scale(0.015625)"/>
     </defs>
     <use xlink:href="#DejaVuSerif-Bold-6a"/>
     <use xlink:href="#DejaVuSerif-Bold-2a" transform="translate(36.181641 0)"/>
    </g>
   </g>
   <g id="text_3">
    <g id="patch_6">
     <path d="M 245.30005 189.5845 
L 251.37755 189.5845 
Q 253.77755 189.5845 253.77755 187.1845 
L 253.77755 171.6995 
Q 253.77755 169.2995 251.37755 169.2995 
L 245.30005 169.2995 
Q 242.90005 169.2995 242.90005 171.6995 
L 242.90005 187.1845 
Q 242.90005 189.5845 245.30005 189.5845 
z
" style="fill: #ffffff"/>
    </g>
    <!-- i -->
    <g transform="translate(245.30005 183.857) scale(0.16 -0.16)">
     <use xlink:href="#DejaVuSerif-Bold-69"/>
    </g>
   </g>
   <g id="patch_7">
    <path d="M 281.546193 179.442 
Q 309.8549 179.442 338.163607 179.442 
" style="fill: none; stroke: #000000; stroke-width: 1.5; stroke-linecap: round"/>
    <path d="M 285.946193 181.642 
L 281.546193 179.442 
L 285.946193 177.242 
" style="fill: none; stroke: #000000; stroke-width: 1.5; stroke-linecap: round"/>
    <path d="M 333.763607 177.242 
L 338.163607 179.442 
L 333.763607 181.642 
" style="fill: none; stroke: #000000; stroke-width: 1.5; stroke-linecap: round"/>
   </g>
   <g id="text_4">
    <g id="patch_8">
     <path d="M 455.70725 144.1737 
L 469.11475 144.1737 
Q 470.39475 144.1737 470.39475 142.8937 
L 470.39475 127.4087 
Q 470.39475 126.1287 469.11475 126.1287 
L 455.70725 126.1287 
Q 454.42725 126.1287 454.42725 127.4087 
L 454.42725 142.8937 
Q 454.42725 144.1737 455.70725 144.1737 
z
" style="fill: #ffffff"/>
    </g>
    <!-- + -->
    <g transform="translate(455.70725 139.5662) scale(0.16 -0.16)">
     <defs>
      <path id="DejaVuSerif-Bold-2b" d="M 3041 4013 
L 3041 2369 
L 4684 2369 
L 4684 1650 
L 3041 1650 
L 3041 6 
L 2322 6 
L 2322 1650 
L 678 1650 
L 678 2369 
L 2322 2369 
L 2322 4013 
L 3041 4013 
z
" transform="scale(0.015625)"/>
     </defs>
     <use xlink:href="#DejaVuSerif-Bold-2b"/>
    </g>
   </g>
   <g id="text_5">
    <g id="patch_9">
     <path d="M 455.70725 232.7553 
L 469.11475 232.7553 
Q 470.39475 232.7553 470.39475 231.4753 
L 470.39475 215.9903 
Q 470.39475 214.7103 469.11475 214.7103 
L 455.70725 214.7103 
Q 454.42725 214.7103 454.42725 215.9903 
L 454.42725 231.4753 
Q 454.42725 232.7553 455.70725 232.7553 
z
" style="fill: #ffffff"/>
    </g>
    <!-- − -->
    <g transform="translate(455.70725 228.1478) scale(0.16 -0.16)">
     <defs>
      <path id="DejaVuSerif-Bold-2212" d="M 678 2363 
L 4684 2363 
L 4684 1644 
L 678 1644 
L 678 2363 
z
" transform="scale(0.015625)"/>
     </defs>
     <use xlink:href="#DejaVuSerif-Bold-2212"/>
    </g>
   </g>
   <g id="text_6">
    <g id="patch_10">
     <path d="M 529.52525 144.1737 
L 542.93275 144.1737 
Q 544.21275 144.1737 544.21275 142.8937 
L 544.21275 127.4087 
Q 544.21275 126.1287 542.93275 126.1287 
L 529.52525 126.1287 
Q 528.24525 126.1287 528.24525 127.4087 
L 528.24525 142.8937 
Q 528.24525 144.1737 529.52525 144.1737 
z
" style="fill: #ffffff"/>
    </g>
    <!-- + -->
    <g transform="translate(529.52525 139.5662) scale(0.16 -0.16)">
     <use xlink:href="#DejaVuSerif-Bold-2b"/>
    </g>
   </g>
   <g id="text_7">
    <g id="patch_11">
     <path d="M 529.52525 232.7553 
L 542.93275 232.7553 
Q 544.21275 232.7553 544.21275 231.4753 
L 544.21275 215.9903 
Q 544.21275 214.7103 542.93275 214.7103 
L 529.52525 214.7103 
Q 528.24525 214.7103 528.24525 215.9903 
L 528.24525 231.4753 
Q 528.24525 232.7553 529.52525 232.7553 
z
" style="fill: #ffffff"/>
    </g>
    <!-- − -->
    <g transform="translate(529.52525 228.1478) scale(0.16 -0.16)">
     <use xlink:href="#DejaVuSerif-Bold-2212"/>
    </g>
   </g>
   <g id="patch_12">
    <path d="M 611.266593 179.442 
Q 639.5753 179.442 667.884007 179.442 
" style="fill: none; stroke: #000000; stroke-width: 1.5; stroke-linecap: round"/>
    <path d="M 615.666593 181.642 
L 611.266593 179.442 
L 615.666593 177.242 
" style="fill: none; stroke: #000000; stroke-width: 1.5; stroke-linecap: round"/>
    <path d="M 663.484007 177.242 
L 667.884007 179.442 
L 663.484007 181.642 
" style="fill: none; stroke: #000000; stroke-width: 1.5; stroke-linecap: round"/>
   </g>
   <g id="text_8">
    <!-- $\sum_j \langle i|v|j^* \rangle \langle j^*|v|i \rangle$ -->
    <g transform="translate(702.742 178.012) scale(0.22 -0.22)">
     <defs>
      <path id="Cmex10-58" d="M 422 -8959 
Q 359 -8959 359 -8891 
Q 359 -8863 378 -8844 
L 3756 -4909 
L 378 -281 
Q 359 -263 359 -250 
L 359 -56 
Q 359 -34 379 -17 
Q 400 0 422 0 
L 8103 0 
L 8878 -1797 
L 8691 -1797 
Q 8394 -1116 7697 -787 
Q 7000 -459 6242 -382 
Q 5484 -306 4481 -306 
L 1522 -306 
L 4544 -4434 
Q 4556 -4459 4556 -4481 
Q 4556 -4500 4544 -4525 
L 1222 -8391 
L 4544 -8391 
Q 5528 -8391 6289 -8314 
Q 7050 -8238 7739 -7908 
Q 8428 -7578 8691 -6900 
L 8878 -6900 
L 8103 -8959 
L 422 -8959 
z
" transform="scale(0.015625)"/>
      <path id="Cmmi10-6a" d="M -84 -909 
Q -84 -753 23 -639 
Q 131 -525 288 -525 
Q 391 -525 461 -589 
Q 531 -653 531 -756 
Q 531 -878 454 -976 
Q 378 -1075 263 -1106 
Q 375 -1147 488 -1147 
Q 759 -1147 959 -895 
Q 1159 -644 1241 -331 
L 1844 2075 
Q 1888 2259 1888 2388 
Q 1888 2663 1697 2663 
Q 1416 2663 1205 2408 
Q 994 2153 863 1819 
Q 850 1778 813 1778 
L 738 1778 
Q 684 1778 684 1838 
L 684 1856 
Q 828 2241 1093 2534 
Q 1359 2828 1709 2828 
Q 1975 2828 2145 2662 
Q 2316 2497 2316 2241 
Q 2316 2150 2297 2059 
L 1691 -372 
Q 1625 -631 1440 -847 
Q 1256 -1063 1000 -1188 
Q 744 -1313 475 -1313 
Q 259 -1313 87 -1209 
Q -84 -1106 -84 -909 
z
M 1941 3878 
Q 1941 4019 2050 4125 
Q 2159 4231 2297 4231 
Q 2406 4231 2476 4164 
Q 2547 4097 2547 3994 
Q 2547 3850 2433 3742 
Q 2319 3634 2181 3634 
Q 2078 3634 2009 3706 
Q 1941 3778 1941 3878 
z
" transform="scale(0.015625)"/>
      <path id="Cmex10-ad" d="M 2272 -7347 
L 641 -3634 
Q 628 -3616 628 -3584 
Q 628 -3553 641 -3541 
L 2272 178 
Q 2303 256 2388 256 
Q 2434 256 2475 215 
Q 2516 175 2516 128 
Q 2516 97 2509 84 
L 897 -3584 
L 2509 -7250 
Q 2516 -7263 2516 -7297 
Q 2516 -7344 2475 -7384 
Q 2434 -7425 2388 -7425 
Q 2306 -7425 2272 -7347 
z
" transform="scale(0.015625)"/>
      <path id="Cmmi10-69" d="M 500 459 
Q 500 578 550 709 
L 1069 2088 
Q 1153 2322 1153 2472 
Q 1153 2663 1013 2663 
Q 759 2663 595 2402 
Q 431 2141 353 1819 
Q 341 1778 300 1778 
L 225 1778 
Q 172 1778 172 1838 
L 172 1856 
Q 275 2238 487 2533 
Q 700 2828 1025 2828 
Q 1253 2828 1411 2678 
Q 1569 2528 1569 2297 
Q 1569 2178 1516 2047 
L 997 672 
Q 909 459 909 288 
Q 909 97 1056 97 
Q 1306 97 1473 364 
Q 1641 631 1709 941 
Q 1722 978 1759 978 
L 1838 978 
Q 1863 978 1878 961 
Q 1894 944 1894 922 
Q 1894 916 1888 903 
Q 1800 541 1583 234 
Q 1366 -72 1044 -72 
Q 819 -72 659 83 
Q 500 238 500 459 
z
M 1222 3878 
Q 1222 4013 1334 4122 
Q 1447 4231 1581 4231 
Q 1691 4231 1761 4164 
Q 1831 4097 1831 3994 
Q 1831 3850 1717 3742 
Q 1603 3634 1466 3634 
Q 1363 3634 1292 3704 
Q 1222 3775 1222 3878 
z
" transform="scale(0.015625)"/>
      <path id="Cmsy10-6a" d="M 763 -1484 
L 763 4684 
Q 763 4734 800 4767 
Q 838 4800 891 4800 
Q 938 4800 978 4767 
Q 1019 4734 1019 4684 
L 1019 -1484 
Q 1019 -1534 978 -1567 
Q 938 -1600 891 -1600 
Q 838 -1600 800 -1567 
Q 763 -1534 763 -1484 
z
" transform="scale(0.015625)"/>
      <path id="Cmmi10-76" d="M 684 722 
Q 684 866 718 1037 
Q 753 1209 787 1320 
Q 822 1431 944 1753 
Q 1066 2075 1069 2088 
Q 1153 2322 1153 2472 
Q 1153 2663 1013 2663 
Q 759 2663 595 2402 
Q 431 2141 353 1819 
Q 341 1778 300 1778 
L 225 1778 
Q 172 1778 172 1838 
L 172 1856 
Q 275 2238 487 2533 
Q 700 2828 1025 2828 
Q 1253 2828 1411 2678 
Q 1569 2528 1569 2297 
Q 1569 2178 1516 2047 
Q 1391 1722 1319 1526 
Q 1247 1331 1186 1089 
Q 1125 847 1125 641 
Q 1125 400 1236 248 
Q 1347 97 1581 97 
Q 2025 97 2381 781 
Q 2494 1003 2594 1303 
Q 2694 1603 2694 1791 
Q 2694 1984 2631 2092 
Q 2569 2200 2469 2317 
Q 2369 2434 2369 2503 
Q 2369 2628 2472 2731 
Q 2575 2834 2700 2834 
Q 2853 2834 2920 2693 
Q 2988 2553 2988 2375 
Q 2988 2163 2927 1869 
Q 2866 1575 2758 1259 
Q 2650 944 2559 763 
Q 2138 -72 1575 -72 
Q 1172 -72 928 129 
Q 684 331 684 722 
z
" transform="scale(0.015625)"/>
      <path id="Cmsy10-a4" d="M 603 813 
Q 531 813 473 873 
Q 416 934 416 1006 
Q 416 1116 506 1159 
L 1428 1600 
L 506 2034 
Q 416 2072 416 2188 
Q 416 2259 473 2320 
Q 531 2381 603 2381 
Q 650 2381 691 2350 
L 1509 1753 
L 1416 2797 
Q 1416 2875 1469 2925 
Q 1522 2975 1600 2975 
Q 1675 2975 1726 2928 
Q 1778 2881 1778 2809 
L 1778 2797 
L 1684 1753 
L 2503 2350 
Q 2544 2381 2591 2381 
Q 2669 2381 2723 2320 
Q 2778 2259 2778 2188 
Q 2778 2072 2688 2034 
L 1766 1600 
L 2688 1159 
Q 2778 1116 2778 1006 
Q 2778 934 2723 873 
Q 2669 813 2591 813 
Q 2544 813 2503 844 
L 1684 1441 
L 1778 403 
L 1778 384 
Q 1778 313 1723 266 
Q 1669 219 1600 219 
Q 1525 219 1470 270 
Q 1416 322 1416 397 
L 1509 1441 
L 691 844 
Q 650 813 603 813 
z
" transform="scale(0.015625)"/>
      <path id="Cmex10-ae" d="M 500 -7297 
Q 500 -7263 513 -7250 
L 2119 -3584 
L 513 84 
Q 500 97 500 128 
Q 500 175 537 215 
Q 575 256 628 256 
Q 703 256 750 178 
L 2381 -3541 
Q 2388 -3553 2388 -3584 
Q 2388 -3616 2381 -3634 
L 750 -7347 
Q 700 -7425 628 -7425 
Q 575 -7425 537 -7384 
Q 500 -7344 500 -7297 
z
" transform="scale(0.015625)"/>
     </defs>
     <use xlink:href="#Cmex10-58" transform="translate(0 104)"/>
     <use xlink:href="#Cmmi10-6a" transform="translate(52 -101.010938) scale(0.7)"/>
     <use xlink:href="#Cmex10-ad" transform="translate(133.09375 94.015625)"/>
     <use xlink:href="#Cmmi10-69" transform="translate(180.310547 0.674479)"/>
     <use xlink:href="#Cmsy10-6a" transform="translate(214.734375 0.674479)"/>
     <use xlink:href="#Cmmi10-76" transform="translate(242.419922 0.674479)"/>
     <use xlink:href="#Cmsy10-6a" transform="translate(290.808594 0.674479)"/>
     <use xlink:href="#Cmmi10-6a" transform="translate(318.494141 0.674479)"/>
     <use xlink:href="#Cmsy10-a4" transform="translate(382.805313 38.938542) scale(0.7)"/>
     <use xlink:href="#Cmex10-ae" transform="translate(436.473672 94.015625)"/>
     <use xlink:href="#Cmex10-ad" transform="translate(483.690469 94.015625)"/>
     <use xlink:href="#Cmmi10-6a" transform="translate(530.907266 0.674479)"/>
     <use xlink:href="#Cmsy10-a4" transform="translate(595.218438 38.938542) scale(0.7)"/>
     <use xlink:href="#Cmsy10-6a" transform="translate(648.886797 0.674479)"/>
     <use xlink:href="#Cmmi10-76" transform="translate(676.572344 0.674479)"/>
     <use xlink:href="#Cmsy10-6a" transform="translate(724.961016 0.674479)"/>
     <use xlink:href="#Cmmi10-69" transform="translate(752.646563 0.674479)"/>
     <use xlink:href="#Cmex10-ae" transform="translate(787.070391 94.015625)"/>
    </g>
   </g>
   <g id="text_9">
    <!-- i -->
    <g transform="translate(422.843094 183.305125) scale(0.14 -0.14)">
     <use xlink:href="#DejaVuSerif-Bold-69"/>
    </g>
   </g>
   <g id="text_10">
    <!-- (i + 1)* -->
    <g transform="translate(470.766562 94.723525) scale(0.14 -0.14)">
     <defs>
      <path id="DejaVuSerif-Bold-28" d="M 2694 -997 
Q 1641 -606 1122 122 
Q 603 850 603 1931 
Q 603 3013 1115 3731 
Q 1628 4450 2694 4863 
L 2694 4488 
Q 2200 4188 1983 3598 
Q 1766 3009 1766 1931 
Q 1766 856 1983 267 
Q 2200 -322 2694 -622 
L 2694 -997 
z
" transform="scale(0.015625)"/>
      <path id="DejaVuSerif-Bold-20" transform="scale(0.015625)"/>
      <path id="DejaVuSerif-Bold-31" d="M 878 0 
L 878 378 
L 1753 378 
L 1753 4153 
L 781 3578 
L 781 4044 
L 1953 4750 
L 2938 4750 
L 2938 378 
L 3816 378 
L 3816 0 
L 878 0 
z
" transform="scale(0.015625)"/>
      <path id="DejaVuSerif-Bold-29" d="M 325 -997 
L 325 -622 
Q 819 -322 1036 267 
Q 1253 856 1253 1931 
Q 1253 3009 1036 3598 
Q 819 4188 325 4488 
L 325 4863 
Q 1391 4450 1905 3731 
Q 2419 3013 2419 1931 
Q 2419 850 1898 122 
Q 1378 -606 325 -997 
z
" transform="scale(0.015625)"/>
     </defs>
     <use xlink:href="#DejaVuSerif-Bold-28"/>
     <use xlink:href="#DejaVuSerif-Bold-69" transform="translate(47.314453 0)"/>
     <use xlink:href="#DejaVuSerif-Bold-20" transform="translate(85.302734 0)"/>
     <use xlink:href="#DejaVuSerif-Bold-2b" transform="translate(120.117188 0)"/>
     <use xlink:href="#DejaVuSerif-Bold-20" transform="translate(203.90625 0)"/>
     <use xlink:href="#DejaVuSerif-Bold-31" transform="translate(238.720703 0)"/>
     <use xlink:href="#DejaVuSerif-Bold-29" transform="translate(308.300781 0)"/>
     <use xlink:href="#DejaVuSerif-Bold-2a" transform="translate(355.615234 0)"/>
    </g>
   </g>
   <g id="text_11">
    <!-- i -->
    <g transform="translate(570.479094 183.305125) scale(0.14 -0.14)">
     <use xlink:href="#DejaVuSerif-Bold-69"/>
    </g>
   </g>
   <g id="text_12">
    <!-- (i - 1)* -->
    <g transform="translate(473.727344 271.886725) scale(0.14 -0.14)">
     <defs>
      <path id="DejaVuSerif-Bold-2d" d="M 347 2138 
L 2309 2138 
L 2309 1294 
L 347 1294 
L 347 2138 
z
" transform="scale(0.015625)"/>
     </defs>
     <use xlink:href="#DejaVuSerif-Bold-28"/>
     <use xlink:href="#DejaVuSerif-Bold-69" transform="translate(47.314453 0)"/>
     <use xlink:href="#DejaVuSerif-Bold-20" transform="translate(85.302734 0)"/>
     <use xlink:href="#DejaVuSerif-Bold-2d" transform="translate(120.117188 0)"/>
     <use xlink:href="#DejaVuSerif-Bold-20" transform="translate(161.621094 0)"/>
     <use xlink:href="#DejaVuSerif-Bold-31" transform="translate(196.435547 0)"/>
     <use xlink:href="#DejaVuSerif-Bold-29" transform="translate(266.015625 0)"/>
     <use xlink:href="#DejaVuSerif-Bold-2a" transform="translate(313.330078 0)"/>
    </g>
   </g>
  </g>
 </g>
 <defs>
  <clipPath id="p2ba88b1cfd">
   <rect x="7.2" y="7.2" width="984.24" height="344.484"/>
  </clipPath>
 </defs>
</svg>
