<?xml version="1.0" encoding="utf-8" standalone="no"?>
<!DOCTYPE svg PUBLIC "-//W3C//DTD SVG 1.1//EN"
  "http://www.w3.org/Graphics/SVG/1.1/DTD/svg11.dtd">
<svg xmlns:xlink="http://www.w3.org/1999/xlink" width="566.64pt" height="566.64pt" viewBox="0 0 566.64 566.64" xmlns="http://www.w3.org/2000/svg" version="1.1">
 <metadata>
  <rdf:RDF xmlns:dc="http://purl.org/dc/elements/1.1/" xmlns:cc="http://creativecommons.org/ns#" xmlns:rdf="http://www.w3.org/1999/02/22-rdf-syntax-ns#">
   <cc:Work>
    <dc:type rdf:resource="http://purl.org/dc/dcmitype/StillImage"/>
    <dc:date>2026-07-29T23:34:25.519812</dc:date>
    <dc:format>image/svg+xml</dc:format>
    <dc:creator>
     <cc:Agent>
      <dc:title>Matplotlib v3.10.3, https://matplotlib.org/</dc:title>
     </cc:Agent>
    </dc:creator>
   </cc:Work>
  </rdf:RDF>
 </metadata>
 <defs>
  <style type="text/css">*{stroke-linejoin: round; stroke-linecap: butt}</style>
 </defs>
 <g id="figure_1">
  <g id="patch_1">
   <path d="M 0 566.64 
L 566.64 566.64 
L 566.64 0 
L 0 0 
z
" style="fill: #ffffff"/>
  </g>
  <g id="axes_1">
   <g id="line2d_1">
    <path d="M 283.32 86.091429 
L 454.124953 184.705714 
" clip-path="url(#peb657059a2)" style="fill: none; stroke: #000000; stroke-width: 2.5; stroke-linecap: square"/>
   </g>
   <g id="line2d_2">
    <path d="M 454.124953 184.705714 
L 454.124953 381.934286 
" clip-path="url(#peb657059a2)" style="fill: none; stroke-dasharray: 2.5,4.125; stroke-dashoffset: 0; stroke: #000000; stroke-width: 2.5"/>
   </g>
   <g id="line2d_3">
    <path d="M 454.124953 381.934286 
L 283.32 480.548571 
" clip-path="url(#peb657059a2)" style="fill: none; stroke: #000000; stroke-width: 2.5; stroke-linecap: square"/>
   </g>
   <g id="line2d_4">
    <path d="M 283.32 480.548571 
L 112.515047 381.934286 
" clip-path="url(#peb657059a2)" style="fill: none; stroke-dasharray: 2.5,4.125; stroke-dashoffset: 0; stroke: #000000; stroke-width: 2.5"/>
   </g>
   <g id="line2d_5">
    <path d="M 112.515047 381.934286 
L 112.515047 184.705714 
" clip-path="url(#peb657059a2)" style="fill: none; stroke: #000000; stroke-width: 2.5; stroke-linecap: square"/>
   </g>
   <g id="line2d_6">
    <path d="M 112.515047 184.705714 
L 283.32 86.091429 
" clip-path="url(#peb657059a2)" style="fill: none; stroke-dasharray: 2.5,4.125; stroke-dashoffset: 0; stroke: #000000; stroke-width: 2.5"/>
   </g>
   <g id="text_1">
    <!-- $\beta_1$ -->
    <g transform="translate(353.328191 94.345446) scale(0.18 -0.18)">
     <defs>
      <path id="Cmmi10-af" d="M 172 -1241 
Q 153 -1241 137 -1219 
Q 122 -1197 122 -1178 
L 1106 2778 
Q 1191 3097 1353 3397 
Q 1516 3697 1761 3955 
Q 2006 4213 2300 4363 
Q 2594 4513 2925 4513 
Q 3163 4513 3355 4408 
Q 3547 4303 3658 4114 
Q 3769 3925 3769 3688 
Q 3769 3459 3681 3251 
Q 3594 3044 3437 2864 
Q 3281 2684 3103 2572 
Q 3206 2506 3287 2404 
Q 3369 2303 3419 2192 
Q 3469 2081 3497 1945 
Q 3525 1809 3525 1691 
Q 3525 1363 3384 1044 
Q 3244 725 3001 465 
Q 2759 206 2446 54 
Q 2134 -97 1806 -97 
Q 1447 -97 1159 100 
Q 872 297 763 634 
L 300 -1203 
Q 300 -1241 250 -1241 
L 172 -1241 
z
M 1819 78 
Q 2106 78 2339 267 
Q 2572 456 2723 742 
Q 2875 1028 2954 1348 
Q 3034 1669 3034 1931 
Q 3034 2256 2847 2444 
Q 2628 2363 2419 2363 
Q 1913 2363 1913 2534 
Q 1913 2759 2491 2759 
Q 2697 2759 2869 2694 
Q 3006 2800 3118 3006 
Q 3231 3213 3289 3438 
Q 3347 3663 3347 3859 
Q 3347 4069 3236 4208 
Q 3125 4347 2913 4347 
Q 2522 4347 2186 4106 
Q 1850 3866 1619 3498 
Q 1388 3131 1288 2741 
L 934 1325 
Q 900 1178 891 997 
Q 891 597 1153 337 
Q 1416 78 1819 78 
z
M 2106 2553 
Q 2203 2528 2425 2528 
Q 2534 2528 2644 2566 
Q 2638 2572 2619 2572 
Q 2550 2591 2472 2591 
Q 2181 2591 2106 2553 
z
" transform="scale(0.015625)"/>
      <path id="Cmr10-31" d="M 594 0 
L 594 225 
Q 1394 225 1394 428 
L 1394 3788 
Q 1063 3628 556 3628 
L 556 3853 
Q 1341 3853 1741 4263 
L 1831 4263 
Q 1853 4263 1873 4245 
Q 1894 4228 1894 4206 
L 1894 428 
Q 1894 225 2694 225 
L 2694 0 
L 594 0 
z
" transform="scale(0.015625)"/>
     </defs>
     <use xlink:href="#Cmmi10-af" transform="translate(0 0.484375)"/>
     <use xlink:href="#Cmr10-31" transform="translate(56.494141 -16.521875) scale(0.7)"/>
    </g>
   </g>
   <g id="text_2">
    <!-- $\beta_2$ -->
    <g transform="translate(486.480623 260.346161) scale(0.18 -0.18)">
     <defs>
      <path id="Cmr10-32" d="M 319 0 
L 319 172 
Q 319 188 331 206 
L 1325 1306 
Q 1550 1550 1690 1715 
Q 1831 1881 1968 2097 
Q 2106 2313 2186 2536 
Q 2266 2759 2266 3009 
Q 2266 3272 2169 3511 
Q 2072 3750 1880 3894 
Q 1688 4038 1416 4038 
Q 1138 4038 916 3870 
Q 694 3703 603 3438 
Q 628 3444 672 3444 
Q 816 3444 917 3347 
Q 1019 3250 1019 3097 
Q 1019 2950 917 2848 
Q 816 2747 672 2747 
Q 522 2747 420 2851 
Q 319 2956 319 3097 
Q 319 3338 409 3548 
Q 500 3759 670 3923 
Q 841 4088 1055 4175 
Q 1269 4263 1509 4263 
Q 1875 4263 2190 4108 
Q 2506 3953 2690 3670 
Q 2875 3388 2875 3009 
Q 2875 2731 2753 2481 
Q 2631 2231 2440 2026 
Q 2250 1822 1953 1562 
Q 1656 1303 1563 1216 
L 838 519 
L 1453 519 
Q 1906 519 2211 526 
Q 2516 534 2534 550 
Q 2609 631 2688 1141 
L 2875 1141 
L 2694 0 
L 319 0 
z
" transform="scale(0.015625)"/>
     </defs>
     <use xlink:href="#Cmmi10-af" transform="translate(0 0.484375)"/>
     <use xlink:href="#Cmr10-32" transform="translate(56.494141 -16.521875) scale(0.7)"/>
    </g>
   </g>
   <g id="text_3">
    <!-- $\beta_1$ -->
    <g transform="translate(404.365289 454.287589) scale(0.18 -0.18)">
     <use xlink:href="#Cmmi10-af" transform="translate(0 0.484375)"/>
     <use xlink:href="#Cmr10-31" transform="translate(56.494141 -16.521875) scale(0.7)"/>
    </g>
   </g>
   <g id="text_4">
    <!-- $\beta_2$ -->
    <g transform="translate(198.958952 482.228304) scale(0.18 -0.18)">
     <use xlink:href="#Cmmi10-af" transform="translate(0 0.484375)"/>
     <use xlink:href="#Cmr10-32" transform="translate(56.494141 -16.521875) scale(0.7)"/>
    </g>
   </g>
   <g id="text_5">
    <!-- $\beta_1$ -->
    <g transform="translate(65.80652 316.227589) scale(0.18 -0.18)">
     <use xlink:href="#Cmmi10-af" transform="translate(0 0.484375)"/>
     <use xlink:href="#Cmr10-31" transform="translate(56.494141 -16.521875) scale(0.7)"/>
    </g>
   </g>
   <g id="text_6">
    <!-- $\beta_2$ -->
    <g transform="translate(144.634711 122.286161) scale(0.18 -0.18)">
     <use xlink:href="#Cmmi10-af" transform="translate(0 0.484375)"/>
     <use xlink:href="#Cmr10-32" transform="translate(56.494141 -16.521875) scale(0.7)"/>
    </g>
   </g>
  </g>
 </g>
 <defs>
  <clipPath id="peb657059a2">
   <rect x="7.2" y="7.2" width="552.24" height="552.24"/>
  </clipPath>
 </defs>
</svg>
